# xmcd
#
# Track frame offsets: 
#        200
#        25117
#        43880
#        69852
#        85375
#        104117
#        116202
#        135695
#        146950
#        162125
#        183420
#        208652
#
# Disc length: 3026 seconds
#
# Revision: 4
# Processed by: cddbd v1.5.1PL0 Copyright (c) Steve Scherf et al.
# Submitted via: ExactAudioCopy v0.95b2
#
DISCID=b50bd00c
DTITLE=Ranee Lee - Deep Song
DYEAR=1989
DGENRE=Jazz
TTITLE0=Wonder Where Our Love Has Gone
TTITLE1=When A Woman Loves A Man
TTITLE2=Crazy He Calls Me
TTITLE3=What A Little Moonlight Can Do
TTITLE4=God Bless The Child
TTITLE5=Somebody's On My Mind
TTITLE6=Easy Livin'
TTITLE7=Strange Fruit
TTITLE8=Ain't Nobody's Business
TTITLE9=Them There Eyes
TTITLE10=Don't Explain
TTITLE11=Deep Song
EXTD=more info
EXTT0=
EXTT1=
EXTT2=
EXTT3=
EXTT4=
EXTT5=
EXTT6=
EXTT7=
EXTT8=
EXTT9=
EXTT10=
EXTT11=
PLAYORDER=
